# xmcd CD database file
#
# Track frame offsets:
#	150
#	23100
#	42675
#	63000
#	73425
#	90525
#	110775
#	140400
#	159300
#	182100
#	200475
#	216225
#	233625
#	252600
#	274350
#
# Disc length: 3869 seconds
#
# Revision: 4
# Processed by: cddbd v1.5.2PL0 Copyright (c) Steve Scherf et al.
# Submitted via: CDex 1.51
#
DISCID=e90f1b0f
DTITLE=Various Artist - Everlasting Love Songs 3
DYEAR=1900
DGENRE=
TTITLE0=Careless Whisper
TTITLE1=Casablanca
TTITLE2=Endless Love
TTITLE3=You are So Beautiful
TTITLE4=Save the Best For Last
TTITLE5=Sailing
TTITLE6=Heal The World
TTITLE7=Beauty And The Beast
TTITLE8=The Greatest Love of All
TTITLE9=Always
TTITLE10=Truely
TTITLE11=Here I am
TTITLE12=Hello
TTITLE13=No More Lonely Night
TTITLE14=A Groovy Kind of Love
EXTD=
EXTT0=Whan\n\n\n
EXTT1=Bertie Higgins\n
EXTT2=Lionel Richie and Whitney Houston\n
EXTT3=Joe Cocker\n
EXTT4=Vanessa Williams\n
EXTT5=Rod Steward\n
EXTT6=Michael Jackson\n
EXTT7=Peabo Bryson and Celine Dion\n
EXTT8=Whitney Houston\n
EXTT9=Paul Young\n
EXTT10=Lionel Richie\n
EXTT11=Air Supply\n
EXTT12=Lionel Richie\n
EXTT13=Paul Mc Cartney\n
EXTT14=Phil Collins\n
PLAYORDER=
